<svg width="133.16000366210938px" height="131.63999023437498px" xmlns="http://www.w3.org/2000/svg" viewBox="183.4199981689453 9.180004882812511 133.16000366210938 131.63999023437498" style="background: none;" preserveAspectRatio="xMidYMid"><defs><filter id="editing-extrusion" x="-100%" y="-100%" width="300%" height="300%"><feFlood result="color1" flood-color="#444"></feFlood><feConvolveMatrix order="8,8" divisor="1" kernelMatrix="1 0 0 0 0 0 0 0 0 1 0 0 0 0 0 0 0 0 1 0 0 0 0 0 0 0 0 1 0 0 0 0 0 0 0 0 1 0 0 0 0 0 0 0 0 1 0 0 0 0 0 0 0 0 1 0 0 0 0 0 0 0 0 1" in="SourceAlpha" result="extrude"></feConvolveMatrix><feComposite in="color1" in2="extrude" result="comp-extrude" operator="in"></feComposite><feOffset dx="4" dy="4" in="comp-extrude" result="offset-extrude"></feOffset><feMerge><feMergeNode in="offset-extrude"></feMergeNode><feMergeNode in="SourceGraphic"></feMergeNode></feMerge></filter></defs><g filter="url(#editing-extrusion)"><g transform="translate(214.9858855009079, 98.04000091552734)"><path d="M50.62-27.39L50.62-27.39L50.62-27.39Q48.26-26.43 46.56-26.43L46.56-26.43L46.56-26.43Q44.86-26.43 44.86-27.14L44.86-27.14L44.86-27.14Q44.86-27.58 46.75-27.65L46.75-27.65L46.75-27.65Q48.64-27.71 49.47-28.10L49.47-28.10L49.47-28.10Q51.90-29.38 51.90-31.87L51.90-31.87L51.90-31.87Q51.90-33.15 51.20-34.56L51.20-34.56L51.20-34.56Q49.15-38.21 41.28-38.21L41.28-38.21L41.28-38.21Q36.74-38.21 32.19-36.83L32.19-36.83L32.19-36.83Q27.65-35.46 24.58-32.61L24.58-32.61L24.58-32.61Q21.50-29.76 21.50-27.33L21.50-27.33L21.50-27.33Q21.50-23.62 28.86-21.89L28.86-21.89L36.42-20.48L36.42-20.48Q40.96-19.65 43.20-18.18L43.20-18.18L43.20-18.18Q46.14-16.38 46.14-13.06L46.14-13.06L46.14-13.06Q46.14-11.71 45.70-10.18L45.70-10.18L45.70-10.18Q43.65-3.26 35.14 0.38L35.14 0.38L35.14 0.38Q28.03 3.52 18.37 3.52L18.37 3.52L18.37 3.52Q15.62 3.52 13.57 3.26L13.57 3.26L13.57 3.26Q15.62 4.42 18.94 5.25L18.94 5.25L18.94 5.25Q19.20 5.31 19.20 5.50L19.20 5.50L19.20 5.50Q19.20 6.08 17.86 6.08L17.86 6.08L17.86 6.08Q15.23 6.08 11.33 2.94L11.33 2.94L11.33 2.94Q6.02 2.11 3.39 0L3.39 0L3.39 0Q1.73-1.34 0.32-3.97L0.32-3.97L0.32-3.97Q-1.09-6.59-1.09-8.70L-1.09-8.70L-1.09-8.70Q-1.09-10.82-0.26-12.22L-0.26-12.22L-0.26-12.22Q1.66-15.62 4.61-15.62L4.61-15.62L4.61-15.62Q6.85-15.62 7.23-11.84L7.23-11.84L7.23-11.84Q8.13-4.54 8.45-3.52L8.45-3.52L8.45-3.52Q9.41-0.38 11.71 1.79L11.71 1.79L11.71 1.79Q14.40 2.37 17.54 2.37L17.54 2.37L17.54 2.37Q24.45 2.37 31.10-0.38L31.10-0.38L31.10-0.38Q37.76-3.14 40.70-8.19L40.70-8.19L40.70-8.19Q41.92-10.18 41.92-11.71L41.92-11.71L41.92-11.71Q41.92-14.72 36.61-16.38L36.61-16.38L25.34-18.94L25.34-18.94Q21.89-19.78 19.81-21.70L19.81-21.70L19.81-21.70Q17.73-23.62 17.73-26.11L17.73-26.11L17.73-26.11Q17.73-29.95 22.53-33.79L22.53-33.79L22.53-33.79Q26.18-36.74 31.46-38.37L31.46-38.37L31.46-38.37Q36.74-40 41.82-40L41.82-40L41.82-40Q46.91-40 50.24-38.53L50.24-38.53L50.24-38.53Q54.53-36.54 54.53-32.74L54.53-32.74L54.53-32.74Q54.53-28.93 50.62-27.39ZM9.41 1.15L9.41 1.15L9.41 1.15Q5.70-2.94 4.67-10.05L4.67-10.05L4.67-10.05Q4.10-14.08 3.58-14.08L3.58-14.08L3.58-14.08Q3.07-14.08 2.62-13.79L2.62-13.79L2.62-13.79Q2.18-13.50 1.73-12.54L1.73-12.54L1.73-12.54Q1.28-11.58 1.28-10.05L1.28-10.05L1.28-10.05Q1.28-5.12 4.74-1.60L4.74-1.60L4.74-1.60Q6.46 0.19 9.41 1.15ZM67.14-5.06L67.14-5.06L67.14-5.06Q67.84-5.06 67.84-4.35L67.84-4.35L67.84-4.35Q67.84-3.46 66.88-3.46L66.88-3.46L66.88-3.46Q62.59-3.46 57.73-1.92L57.73-1.92L57.73-1.92Q55.36-1.09 52.13 0.19L52.13 0.19L52.13 0.19Q48.90 1.47 48.67 1.47L48.67 1.47L48.67 1.47Q48.45 1.47 48.13 0.99L48.13 0.99L48.13 0.99Q47.81 0.51 47.81-0.35L47.81-0.35L47.81-0.35Q47.81-1.22 48.38-1.41L48.38-1.41L48.38-1.41Q50.11-2.18 54.85-3.78L54.85-3.78L54.85-3.78Q62.85-18.43 70.91-33.02L70.91-33.02L70.91-33.02Q67.39-30.85 61.95-28.80L61.95-28.80L61.95-28.80Q60.99-28.42 60.99-29.44L60.99-29.44L60.99-29.44Q60.99-29.95 61.57-30.27L61.57-30.27L61.57-30.27Q65.92-31.87 73.66-37.95L73.66-37.95L74.05-38.59L74.05-38.59Q74.69-39.81 76.74-39.81L76.74-39.81L76.74-39.81Q78.78-39.81 78.78-38.85L78.78-38.85L78.78-38.85Q78.78-38.66 78.59-38.34L78.59-38.34L57.98-4.29L57.98-4.29Q62.34-5.06 67.14-5.06Z" fill="#ccc"></path></g></g><style>text {
  font-size: 64px;
  font-family: Arial Black;
  dominant-baseline: central;
  text-anchor: middle;
}</style></svg>